<?xml version="1.0" standalone="no"?>
<!DOCTYPE svg PUBLIC "-//W3C//DTD SVG 20010904//EN"
 "http://www.w3.org/TR/2001/REC-SVG-20010904/DTD/svg10.dtd">
<svg version="1.0" xmlns="http://www.w3.org/2000/svg"
 width="535.000000pt" height="714.000000pt" viewBox="0 0 535.000000 714.000000"
 preserveAspectRatio="xMidYMid meet">

<g transform="translate(0.000000,714.000000) scale(0.100000,-0.100000)"
fill="#000000" stroke="none">
<path d="M0 3570 l0 -3570 2675 0 2675 0 0 3570 0 3570 -2675 0 -2675 0 0
-3570z m3190 1733 c34 -16 126 -43 143 -43 8 0 20 -7 28 -16 7 -8 21 -13 31
-11 10 3 20 2 22 -2 9 -14 144 -80 150 -74 3 4 6 -1 6 -10 0 -10 6 -17 14 -17
25 0 120 -86 196 -176 41 -49 90 -107 109 -129 l36 -39 -45 37 c-162 133 -408
273 -599 341 l-94 33 -18 59 c-22 68 -21 67 -11 62 4 -2 18 -9 32 -15z m-290
-58 c136 -20 268 -56 405 -109 254 -100 444 -218 622 -390 57 -54 103 -95 103
-91 0 5 9 0 20 -10 10 -9 18 -21 17 -25 -1 -4 28 -48 64 -96 91 -121 129 -182
188 -305 73 -150 117 -267 143 -380 13 -54 27 -99 31 -99 4 0 20 8 34 17 29
19 29 19 86 21 21 1 36 6 33 11 -3 5 11 12 31 16 25 4 38 2 44 -7 14 -21 11
-28 -12 -28 -39 0 -185 -32 -202 -45 -14 -10 -15 -22 -8 -91 13 -116 13 -341
0 -441 -6 -49 -21 -131 -34 -184 -25 -101 -127 -373 -151 -400 -8 -8 -14 -19
-14 -23 0 -13 -133 -209 -191 -281 -57 -71 -164 -179 -251 -253 -139 -119
-410 -267 -597 -328 -103 -34 -305 -75 -359 -73 -15 0 20 9 78 19 244 43 519
155 724 292 300 202 564 542 680 875 72 209 97 357 96 581 0 367 -88 661 -295
982 -177 275 -455 519 -755 662 -259 123 -508 178 -808 178 -307 -1 -547 -57
-827 -196 -240 -118 -416 -258 -568 -449 -98 -123 -135 -179 -197 -304 -205
-409 -253 -835 -145 -1276 24 -95 72 -232 111 -309 8 -16 14 -37 14 -48 0 -10
4 -18 10 -18 5 0 18 -15 27 -33 126 -237 389 -517 618 -658 36 -22 38 -24 17
-27 -25 -4 -92 37 -213 130 -42 32 -80 58 -86 58 -5 0 -19 10 -30 23 -12 12
-32 31 -44 42 -81 71 -239 277 -239 313 0 12 -8 26 -18 31 -18 10 -102 165
-102 188 0 7 -18 65 -40 130 -22 64 -54 183 -72 263 -28 134 -31 160 -31 345
-1 203 12 315 51 454 8 31 15 67 16 81 0 14 6 31 12 37 7 7 17 36 23 65 12 53
79 208 90 208 4 0 7 8 8 19 1 10 20 49 44 87 170 279 445 530 739 674 212 105
490 179 725 193 94 5 290 -4 385 -18z m-246 -57 c5 -10 7 -10 12 0 7 14 64 17
64 2 0 -5 -11 -10 -25 -10 -33 0 -33 -26 1 -33 21 -4 26 0 31 24 6 30 23 40
23 14 0 -21 16 -19 25 3 7 16 8 15 15 -3 5 -11 9 -14 9 -7 1 17 21 15 21 -3 0
-20 10 -19 26 3 12 15 14 13 15 -18 1 -31 2 -32 8 -10 6 21 13 25 41 25 31 0
35 -3 38 -29 2 -16 -1 -33 -7 -39 -8 -8 -11 -1 -12 24 l-1 34 -10 -27 c-5 -16
-13 -28 -17 -28 -5 0 -7 12 -5 28 l4 27 -12 -26 c-11 -22 -18 -25 -53 -21 -22
2 -46 4 -52 4 -7 1 -13 7 -13 15 0 7 -7 13 -15 13 -8 0 -15 -5 -15 -10 0 -14
-102 -10 -113 4 -6 8 -10 7 -14 -1 -9 -24 -23 -13 -23 17 0 21 -4 28 -14 24
-8 -3 -11 -15 -8 -30 6 -32 -14 -31 -22 1 -4 14 -11 25 -16 25 -6 0 -10 5 -10
10 0 15 117 13 124 -2z m-317 -43 c13 -40 12 -40 -44 -50 -40 -6 -41 -6 -48
25 -8 34 -1 45 30 53 44 10 52 7 62 -28z m722 9 c37 -7 43 -14 26 -30 -8 -9
-15 -22 -15 -30 0 -8 -4 -14 -10 -14 -5 0 -7 13 -3 30 4 23 2 30 -10 30 -8 0
-22 3 -31 6 -9 3 -16 1 -16 -4 0 -6 8 -13 18 -15 12 -3 9 -5 -8 -6 l-25 -2 25
-14 25 -14 -31 -1 c-40 0 -44 5 -31 46 10 31 14 34 36 29 14 -4 37 -9 50 -11z
m111 -36 c0 -6 -9 -8 -20 -5 -11 3 -20 1 -20 -4 0 -5 7 -9 15 -9 8 0 15 -5 15
-11 0 -6 -9 -8 -22 -4 -22 6 -22 6 -4 -9 24 -19 18 -27 -12 -19 -24 6 -27 19
-13 56 8 19 15 23 35 20 14 -3 26 -10 26 -15z m70 -34 c0 -7 -4 -15 -10 -19
-5 -3 -7 -12 -3 -20 3 -8 0 -15 -5 -15 -6 0 -14 9 -17 21 -7 19 -7 20 -21 2
-12 -16 -13 -16 -14 -1 0 9 4 28 10 42 8 23 12 25 35 14 14 -6 25 -17 25 -24z
m-911 -26 c10 -26 6 -38 -13 -38 -14 0 -29 38 -20 52 9 15 25 8 33 -14z m633
-9 c-5 -31 -10 -35 -23 -22 -14 14 -2 56 14 50 7 -2 10 -15 9 -28z m228 -46
c0 -30 -17 -50 -31 -36 -8 8 -8 16 0 32 14 26 31 27 31 4z m345 -44 c31 -18
34 -24 23 -38 -11 -14 -11 -14 3 -3 16 12 49 7 49 -7 0 -3 -9 -17 -19 -31
l-19 -24 -35 19 c-45 24 -89 59 -64 51 9 -3 17 -1 17 3 0 5 -6 11 -12 14 -10
3 -10 7 1 20 17 21 13 21 56 -4z m-623 -9 c243 -42 483 -145 675 -290 359
-272 580 -683 606 -1128 6 -98 -9 -78 -17 23 -10 135 -69 358 -101 385 -8 6
-11 18 -9 25 3 8 -1 24 -10 37 -9 12 -16 18 -16 13 -1 -6 -10 7 -21 28 -11 22
-23 37 -26 34 -2 -3 2 -16 11 -29 20 -31 53 -116 83 -213 40 -131 63 -287 63
-427 0 -114 -2 -127 -17 -126 -10 1 -39 -2 -65 -7 l-48 -7 0 31 c0 17 -5 31
-10 31 -6 0 -9 -5 -8 -11 2 -6 -3 -14 -11 -17 -8 -2 -11 -1 -8 4 3 5 2 25 -3
44 l-8 35 -1 -32 c-1 -30 -21 -49 -21 -20 0 9 -3 8 -9 -2 -7 -10 -24 -12 -75
-6 -93 10 -89 31 6 28 56 -1 65 0 40 6 -18 5 -42 6 -53 4 -11 -3 -19 0 -19 6
0 7 -4 9 -10 6 -5 -3 -10 0 -10 7 0 9 -3 9 -10 -2 -8 -13 -10 -12 -10 3 0 11
-12 22 -30 28 -16 6 -30 18 -31 27 -1 10 -4 7 -9 -8 -7 -22 -8 -21 -9 13 -1
35 -3 37 -30 35 -16 -1 -36 4 -45 11 -8 7 -32 13 -51 13 -33 0 -34 1 -18 14
16 12 16 13 1 14 -9 0 -18 3 -21 8 -2 4 -2 1 0 -7 2 -10 -5 -12 -27 -9 -22 3
-29 1 -26 -8 7 -17 -25 -6 -41 14 -14 17 -28 9 -28 -16 0 -9 -8 -18 -17 -20
-11 -2 -18 3 -18 12 0 9 -8 16 -20 16 -37 0 -20 20 28 32 27 7 39 14 29 16
-18 4 -18 4 0 18 17 14 16 14 -4 5 -32 -16 -83 -14 -83 3 0 8 -9 24 -21 37
l-21 24 15 -23 c27 -43 -6 -82 -69 -82 -37 0 -28 33 11 41 l30 5 -31 8 c-18 4
-39 15 -47 24 -18 20 -18 72 1 65 21 -8 13 11 -13 32 -14 11 -34 28 -46 37
-12 10 -26 15 -30 12 -8 -5 -14 18 -10 39 4 20 -25 -6 -155 -143 -76 -80 -142
-147 -147 -149 -5 -2 -28 16 -52 39 l-43 43 138 151 c76 83 150 167 166 186
24 31 22 30 -18 -8 -43 -42 -45 -42 -43 -18 2 14 -1 24 -6 20 -5 -3 -25 11
-45 31 -30 32 -37 35 -51 23 -9 -7 -14 -8 -10 -2 4 8 -8 14 -34 18 -47 8 -43
26 7 26 24 0 34 -4 34 -16 0 -8 5 -12 10 -9 6 4 3 15 -7 30 -12 15 -20 19 -25
11 -6 -8 -8 -7 -8 2 0 9 -7 11 -22 7 -22 -6 -22 -6 -4 9 19 16 19 16 -1 16
-12 0 -23 5 -25 12 -3 7 -5 -16 -6 -51 -2 -61 -31 -151 -50 -151 -4 0 -18 9
-30 20 -12 12 -22 18 -22 14 0 -3 -7 -1 -15 6 -8 7 -12 16 -9 21 3 5 -2 6 -10
3 -8 -3 -23 3 -34 13 -10 10 -27 23 -38 29 -10 6 -23 20 -29 32 -5 12 -16 22
-23 22 -7 0 -10 5 -7 10 9 15 -14 40 -36 40 -22 0 -26 14 -35 126 -6 89 -6 92
16 99 12 4 24 4 27 1 3 -3 10 -54 15 -112 6 -64 15 -113 23 -120 7 -8 15 -19
17 -26 3 -8 12 -6 31 8 27 20 47 51 24 38 -9 -5 -9 -4 1 7 14 15 16 55 3 64
-6 3 -9 14 -8 24 0 10 -5 37 -13 60 -11 35 -16 40 -37 35 -14 -4 -23 -2 -23 5
0 14 67 15 75 1 3 -5 10 -10 16 -10 5 0 9 5 9 10 0 6 -7 10 -16 10 -9 0 -14 6
-11 13 19 47 19 52 -3 27 -12 -14 -19 -19 -15 -12 4 7 2 18 -3 25 -16 21 -21
59 -11 79 9 16 5 18 -30 18 l-40 0 3 53 c2 28 1 42 -1 30 -2 -13 -10 -23 -18
-23 -18 0 -34 132 -16 138 17 6 -14 32 -38 32 -14 0 -21 6 -21 18 0 10 -4 22
-9 28 -5 5 -11 18 -14 29 -3 11 -3 -1 0 -28 5 -43 4 -47 -13 -40 -11 4 -13 8
-6 11 7 2 10 8 7 12 -3 5 -12 7 -20 3 -8 -3 -15 -1 -15 5 0 6 -3 17 -6 26 -3
9 -1 16 5 16 6 0 11 -8 12 -17 0 -15 2 -15 9 2 4 11 4 24 -1 29 -5 5 -1 15 9
22 14 11 11 11 -16 1 -32 -12 -33 -13 -27 -54 7 -45 -8 -61 -19 -20 -11 42 -6
65 14 72 11 3 19 9 19 13 -4 23 7 30 59 42 76 17 285 27 397 18 110 -9 255
-39 353 -72 39 -14 72 -23 72 -21 0 5 -67 36 -85 40 -5 2 -28 11 -50 20 -22
10 -46 17 -54 16 -7 -1 -10 2 -7 8 16 25 -219 61 -399 61 -391 0 -750 -144
-1035 -415 -52 -49 -88 -81 -80 -70 39 53 185 183 271 241 194 130 402 216
616 253 151 27 384 27 535 1z m428 2 c0 -5 -6 -16 -13 -27 -18 -24 -41 -11
-27 16 10 19 40 27 40 11z m-2085 -99 c22 -82 26 -88 56 -72 13 7 -19 -33 -71
-88 -161 -170 -291 -371 -371 -573 -24 -60 -44 -108 -46 -107 -3 4 103 546
118 602 6 22 13 50 16 63 3 12 9 22 14 22 5 0 9 6 9 14 0 8 11 23 25 34 14 11
25 25 25 32 0 6 5 8 10 5 6 -3 10 1 10 9 0 9 4 16 9 16 4 0 28 16 52 35 24 19
49 35 54 35 6 0 21 9 35 20 14 11 28 20 31 20 4 0 15 -30 24 -67z m2473 -63
c-12 -17 -24 -30 -26 -30 -15 0 -82 65 -78 76 3 7 1 16 -4 19 -6 4 -5 13 2 25
11 17 15 16 70 -21 l58 -40 -22 -29z m411 85 c9 -8 33 -29 54 -46 43 -36 46
-57 12 -89 -13 -12 -29 -38 -35 -56 -14 -41 -37 -44 -70 -9 -13 14 -29 25 -36
25 -6 0 -22 9 -35 19 l-24 19 29 24 c16 12 37 26 45 30 13 5 12 7 -5 7 -11 1
-35 -14 -53 -33 l-32 -33 53 -35 c29 -20 80 -50 113 -68 124 -66 164 -108 247
-255 52 -90 50 -105 -13 -105 -26 0 -41 -6 -48 -17 -9 -16 -12 -15 -11 2 1 7
-46 87 -98 168 -57 88 -179 240 -200 248 -10 4 -27 17 -39 30 -12 13 -32 33
-43 43 l-20 20 37 38 c23 23 43 36 53 33 10 -3 28 7 45 25 32 33 51 37 74 15z
m-628 -44 c-7 -12 -17 -18 -26 -15 -14 6 -13 15 8 42 16 20 31 -2 18 -27z
m-1957 -3 c-6 -19 -5 -21 8 -10 12 10 18 8 32 -7 16 -17 15 -20 -18 -45 -43
-32 -47 -32 -76 -1 l-24 25 35 30 c41 35 53 37 43 8z m2079 -44 c9 -9 -16 -44
-30 -44 -16 0 -17 22 -1 38 13 13 22 15 31 6z m151 -16 c-6 -19 -4 -21 7 -11
11 9 20 8 39 -7 l24 -18 -19 -24 -20 -23 22 19 c19 16 25 17 38 6 14 -12 13
-16 -6 -37 -13 -12 -25 -23 -29 -23 -4 0 -23 14 -42 30 -36 30 -45 66 -25 98
13 19 19 14 11 -10z m-1619 -76 c-6 -6 -25 45 -24 66 0 9 7 -1 15 -22 8 -22
12 -41 9 -44z m115 41 c0 -7 -4 -13 -10 -13 -5 0 -10 12 -10 28 0 21 2 24 10
12 5 -8 10 -21 10 -27z m-30 -6 c0 -18 -2 -19 -10 -7 -13 20 -13 43 0 35 6 -3
10 -16 10 -28z m-627 5 c13 -14 14 -21 5 -30 -9 -9 -16 -8 -30 5 -21 19 -24
43 -5 43 8 0 21 -8 30 -18z m607 -24 c0 -4 -4 -8 -10 -8 -5 0 -10 4 -10 9 0 5
-3 18 -6 28 -5 16 -4 16 10 -1 9 -11 16 -23 16 -28z m-37 12 c3 -11 2 -20 -3
-20 -4 0 -10 9 -13 20 -3 11 -2 20 3 20 4 0 10 -9 13 -20z m-53 -28 c0 -15 -2
-15 -10 -2 -13 20 -13 33 0 25 6 -3 10 -14 10 -23z m-112 -24 c6 -16 8 -28 3
-28 -5 0 -11 8 -14 18 -2 9 -8 26 -12 37 -12 30 9 6 23 -27z m86 17 c3 -8 1
-15 -3 -15 -5 0 -11 7 -15 15 -3 8 -1 15 3 15 5 0 11 -7 15 -15z m-30 -11 c3
-8 2 -12 -4 -9 -6 3 -10 10 -10 16 0 14 7 11 14 -7z m1671 -24 c-12 -14 -22
-17 -29 -10 -6 6 -3 16 9 30 12 14 22 17 29 10 6 -6 3 -16 -9 -30z m-1697 5
c-3 -3 -9 2 -12 12 -6 14 -5 15 5 6 7 -7 10 -15 7 -18z m-48 -30 c0 -5 -5 -3
-10 5 -5 8 -10 20 -10 25 0 6 5 3 10 -5 5 -8 10 -19 10 -25z m369 -35 c38
-125 38 -126 -4 -140 -20 -7 -40 -8 -45 -4 -13 15 -58 182 -51 192 6 10 33 19
63 21 12 1 22 -18 37 -69z m-485 13 c9 -18 14 -33 12 -33 -6 0 -36 55 -36 66
0 11 5 3 24 -33z m86 27 c0 -5 -2 -10 -4 -10 -3 0 -8 5 -11 10 -3 6 -1 10 4
10 6 0 11 -4 11 -10z m-26 -16 c3 -8 2 -12 -4 -9 -6 3 -10 10 -10 16 0 14 7
11 14 -7z m2073 -65 l23 -25 -30 -23 -30 -22 -28 32 c-15 18 -36 44 -46 57
-19 24 -19 24 2 18 18 -6 21 -4 15 11 -6 16 -5 17 12 3 17 -14 17 -13 10 10
-7 24 -6 24 21 -5 16 -17 39 -42 51 -56z m-2099 46 c-3 -3 -9 2 -12 12 -6 14
-5 15 5 6 7 -7 10 -15 7 -18z m291 -44 c22 -53 26 -71 13 -71 -4 0 -17 23 -28
52 -10 29 -20 56 -22 60 -2 4 1 8 6 8 5 0 19 -22 31 -49z m-116 -56 c29 -61
31 -65 19 -65 -7 0 -62 102 -62 115 0 3 4 5 8 5 4 0 20 -25 35 -55z m1815 -1
c-10 -11 -23 -14 -35 -10 -17 7 -16 9 6 27 30 24 55 9 29 -17z m-1930 -55 c18
-28 32 -55 30 -61 -3 -9 -78 94 -78 107 0 17 19 -2 48 -46z m-310 -34 c-3 -4
-16 9 -28 27 l-23 33 28 -27 c16 -15 26 -30 23 -33z m793 -20 c10 -34 -3 -47
-40 -43 -36 4 -49 55 -18 68 34 14 50 7 58 -25z m-587 -21 c21 -25 35 -48 32
-51 -3 -4 -7 -4 -9 -2 -2 2 -20 25 -41 52 -49 60 -33 62 18 1z m632 24 c-3
-13 -6 -29 -6 -35 0 -7 -4 -13 -10 -13 -5 0 -10 16 -10 35 0 26 4 35 16 35 12
0 15 -6 10 -22z m-127 -20 c13 -37 12 -39 -30 -41 -27 -2 -33 2 -40 26 -6 24
-4 30 14 37 36 15 45 11 56 -22z m1804 -43 l36 -56 -31 -19 c-31 -19 -58 -13
-58 12 0 5 -11 26 -25 46 -26 38 -34 65 -13 44 18 -18 28 -15 21 6 -6 15 -5
16 12 2 17 -14 18 -13 12 3 -13 35 11 15 46 -38z m-2305 -132 c-12 -13 -26
-23 -33 -23 -6 0 -42 32 -80 71 l-70 70 30 24 30 25 72 -72 73 -72 -22 -23z
m417 141 c9 -14 14 -29 10 -32 -6 -7 -44 36 -45 51 0 16 19 6 35 -19z m-739
-16 l29 -33 -32 29 c-18 17 -33 31 -33 33 0 8 8 1 36 -29z m-416 -54 c0 -6 -8
-22 -18 -34 -15 -19 -22 -21 -39 -12 -11 6 -29 8 -41 5 -25 -6 -29 9 -7 27 8
7 15 18 15 24 0 7 5 17 11 23 14 14 79 -14 79 -33z m411 19 c13 -16 12 -17 -3
-4 -10 7 -18 15 -18 17 0 8 8 3 21 -13z m2540 -8 c0 -5 -9 -16 -20 -24 -18
-12 -22 -11 -27 4 -4 10 -1 21 7 26 17 11 40 8 40 -6z m-1879 -12 c10 -9 18
-20 18 -25 0 -11 -49 24 -50 35 0 12 12 8 32 -10z m-1024 -39 c18 -12 20 -19
11 -30 -9 -11 -15 -11 -40 1 -18 10 -26 20 -23 30 8 19 24 19 52 -1z m302 -40
c0 -9 -37 15 -51 33 -10 12 -5 11 19 -6 17 -12 32 -24 32 -27z m11 29 c13 -16
12 -17 -3 -4 -10 7 -18 15 -18 17 0 8 8 3 21 -13z m194 -28 c28 -24 46 -44 40
-44 -5 -1 -32 19 -60 44 -27 24 -45 44 -40 44 6 1 33 -19 60 -44z m460 -7 c21
-9 35 -28 20 -28 -12 0 -55 24 -55 32 0 11 4 10 35 -4z m2439 -35 c15 -14 25
-32 22 -39 -3 -7 2 -15 10 -18 20 -8 18 -25 -3 -24 -10 1 -58 -7 -106 -16 -69
-13 -92 -14 -103 -5 -8 6 -12 14 -9 17 3 3 0 11 -6 19 -9 10 -8 13 2 13 11 0
11 2 -1 10 -12 8 -12 10 3 16 9 3 15 10 12 14 -3 5 21 14 52 20 32 6 63 13 68
15 22 8 33 4 59 -22z m-3143 0 c13 -16 12 -17 -3 -4 -10 7 -18 15 -18 17 0 8
8 3 21 -13z m167 -56 c24 -16 41 -31 39 -34 -7 -6 -107 60 -107 70 0 9 8 5 68
-36z m569 -14 c-3 -10 -5 -2 -5 17 0 19 2 27 5 18 2 -10 2 -26 0 -35z m-766
20 c13 -16 12 -17 -3 -4 -17 13 -22 21 -14 21 2 0 10 -8 17 -17z m-15 -24 c3
-6 -5 -3 -20 6 -14 10 -26 19 -26 22 0 7 39 -17 46 -28z m3333 -14 c32 -68 71
-212 70 -259 -1 -39 -1 -40 -9 -11 -4 17 -11 42 -14 58 -4 15 -13 27 -21 27
-8 0 -21 13 -30 30 -20 38 -20 80 0 80 17 0 19 9 5 30 -8 13 -11 13 -19 1 -7
-11 -13 -7 -25 17 -22 43 -21 72 3 72 12 0 26 -15 40 -45z m-2584 15 c4 -6 -7
-10 -24 -10 -17 0 -31 5 -31 10 0 6 11 10 24 10 14 0 28 -4 31 -10z m-764 -27
c13 -16 12 -17 -3 -4 -10 7 -18 15 -18 17 0 8 8 3 21 -13z m3289 -35 c0 -4 -4
-10 -10 -13 -6 -3 1 -17 15 -31 18 -18 24 -32 19 -46 -4 -14 -2 -18 5 -14 7 5
11 -1 11 -15 0 -21 -1 -21 -20 -4 -18 17 -24 17 -125 -2 -100 -19 -105 -19
-105 -2 0 20 17 34 22 19 4 -14 149 16 159 32 6 9 12 8 23 -2 24 -19 31 -5 8
18 -19 19 -21 19 -108 1 -100 -20 -128 -23 -120 -10 3 4 39 14 81 21 56 10 75
17 71 26 -4 10 3 14 19 14 14 0 25 5 25 11 0 7 -11 9 -27 6 -16 -3 -59 -11
-98 -17 -38 -7 -76 -17 -82 -22 -10 -8 -13 -6 -13 6 0 9 12 18 28 22 15 3 59
14 97 24 64 16 72 16 98 1 15 -8 27 -19 27 -23z m-3295 4 c-3 -3 -11 0 -18 7
-9 10 -8 11 6 5 10 -3 15 -9 12 -12z m865 1 c0 -5 3 -18 6 -30 5 -18 1 -25
-21 -33 -31 -12 -48 -4 -25 10 13 8 12 10 -2 10 -10 0 -18 2 -18 4 0 2 -3 11
-6 19 -3 10 2 17 13 20 30 8 53 7 53 0z m-740 -13 c0 -5 -7 -7 -15 -4 -8 4
-15 8 -15 10 0 2 7 4 15 4 8 0 15 -4 15 -10z m979 -27 c-1 -37 -1 -37 -8 -8
-7 28 -5 45 5 45 2 0 3 -17 3 -37z m-1114 17 c3 -5 2 -10 -4 -10 -5 0 -13 5
-16 10 -3 6 -2 10 4 10 5 0 13 -4 16 -10z m798 -17 c3 -16 0 -31 -6 -35 -20
-13 -57 -9 -57 6 0 8 -3 21 -6 29 -3 10 2 17 13 20 40 10 51 7 56 -20z m-608
0 c19 -9 35 -22 35 -29 0 -6 11 -15 24 -18 14 -3 170 -67 348 -142 178 -75
361 -152 408 -172 115 -48 112 -44 87 -102 -12 -27 -27 -50 -32 -50 -6 0 -74
27 -151 59 -180 77 -187 78 -202 49 -10 -22 -11 -21 -6 7 5 30 4 30 -88 67
-51 20 -169 69 -263 108 -93 39 -194 80 -222 91 -29 11 -53 24 -53 29 0 20 40
100 50 100 6 0 27 -7 47 -15 50 -21 55 -18 11 6 -21 11 -38 22 -38 24 0 8 7 6
45 -12z m-210 -3 c3 -5 1 -10 -4 -10 -6 0 -11 5 -11 10 0 6 2 10 4 10 3 0 8
-4 11 -10z m2963 -2 c9 -9 12 -9 12 0 0 7 3 12 8 12 9 0 47 -118 40 -125 -3
-3 -21 -8 -41 -12 l-35 -5 -16 55 c-19 66 -20 74 -3 80 19 8 22 8 35 -5z
m-2968 -34 c0 -2 -13 2 -30 11 -16 9 -30 18 -30 21 0 2 14 -2 30 -11 17 -9 30
-18 30 -21z m-160 16 c0 -5 -2 -10 -4 -10 -3 0 -8 5 -11 10 -3 6 -1 10 4 10 6
0 11 -4 11 -10z m1605 -22 c35 -16 34 -41 -1 -27 -38 14 -45 19 -39 30 8 11 9
11 40 -3z m-1615 -8 c0 -5 -2 -10 -4 -10 -3 0 -8 5 -11 10 -3 6 -1 10 4 10 6
0 11 -4 11 -10z m160 -12 c0 -6 -6 -5 -15 2 -8 7 -15 14 -15 16 0 2 7 1 15 -2
8 -4 15 -11 15 -16z m2926 1 c8 -14 -5 -27 -36 -31 -29 -4 -42 28 -13 35 31 8
42 7 49 -4z m-3096 -19 c0 -5 -2 -10 -4 -10 -3 0 -8 5 -11 10 -3 6 -1 10 4 10
6 0 11 -4 11 -10z m155 0 c3 -5 2 -10 -4 -10 -5 0 -13 5 -16 10 -3 6 -2 10 4
10 5 0 13 -4 16 -10z m885 -6 c0 -11 -34 -33 -50 -33 -10 -1 -6 6 10 19 26 20
40 25 40 14z m2486 -21 c18 -24 17 -36 -1 -29 -14 5 -164 -22 -210 -39 -18 -6
-18 -5 3 13 14 13 50 25 98 33 42 7 70 15 63 19 -8 6 -6 9 7 13 10 2 21 5 23
6 2 0 10 -7 17 -16z m-3381 -3 c3 -6 -1 -7 -9 -4 -18 7 -21 14 -7 14 6 0 13
-4 16 -10z m1430 -30 c10 -11 15 -23 12 -27 -8 -7 -47 25 -47 39 0 14 16 9 35
-12z m-1585 0 c0 -5 -4 -10 -9 -10 -6 0 -13 5 -16 10 -3 6 1 10 9 10 9 0 16
-4 16 -10z m155 0 c3 -5 1 -10 -4 -10 -6 0 -11 5 -11 10 0 6 2 10 4 10 3 0 8
-4 11 -10z m-36 -11 c26 -9 44 -29 26 -29 -10 0 -65 30 -65 35 0 7 3 6 39 -6z
m-134 -19 c3 -5 2 -10 -4 -10 -5 0 -13 5 -16 10 -3 6 -2 10 4 10 5 0 13 -4 16
-10z m365 -25 c63 -22 65 -23 63 -54 0 -18 -4 -35 -7 -38 -8 -8 -188 49 -192
62 -3 6 0 24 5 39 12 30 16 30 131 -9z m750 10 c-13 -14 -26 -23 -28 -20 -7 7
29 45 41 45 6 0 0 -11 -13 -25z m-960 -11 c0 -2 -7 -4 -15 -4 -8 0 -15 4 -15
10 0 5 7 7 15 4 8 -4 15 -8 15 -10z m1363 -14 c10 -16 14 -30 8 -30 -10 0 -41
39 -41 52 0 17 17 6 33 -22z m-1523 10 c0 -5 -4 -10 -9 -10 -6 0 -13 5 -16 10
-3 6 1 10 9 10 9 0 16 -4 16 -10z m145 -20 c3 -5 2 -10 -4 -10 -5 0 -13 5 -16
10 -3 6 -2 10 4 10 5 0 13 -4 16 -10z m1061 -27 c-8 -15 -15 -22 -16 -15 0 17
20 55 27 49 2 -3 -2 -18 -11 -34z m282 8 c6 -43 -53 -59 -64 -17 -8 34 3 48
34 44 20 -2 28 -10 30 -27z m-86 -48 c-26 -21 -51 -15 -58 13 -7 28 1 40 31
46 29 6 51 -42 27 -59z m-82 27 c0 -16 -4 -30 -10 -30 -5 0 -10 14 -10 30 0
17 5 30 10 30 6 0 10 -13 10 -30z m2260 26 c0 -2 3 -12 7 -22 4 -10 2 -15 -3
-11 -5 3 -50 -3 -99 -13 -84 -18 -146 -25 -117 -13 6 2 10 9 7 13 -6 10 54 28
115 34 23 2 44 7 47 10 7 7 43 8 43 2z m-3435 -16 c3 -5 2 -10 -4 -10 -5 0
-13 5 -16 10 -3 6 -2 10 4 10 5 0 13 -4 16 -10z m-390 -20 c9 15 45 12 45 -4
0 -8 -6 -13 -12 -12 -7 0 -13 -3 -13 -9 0 -5 3 -9 8 -7 4 1 7 -2 7 -7 0 -5
-15 -11 -34 -13 -33 -4 -34 -2 -34 30 0 26 3 31 13 22 9 -8 15 -8 20 0z m380
-10 c3 -6 -1 -7 -9 -4 -18 7 -21 14 -7 14 6 0 13 -4 16 -10z m-255 -31 c0 -5
-11 -9 -25 -9 -24 0 -32 10 -19 22 8 8 44 -3 44 -13z m235 11 c13 -5 14 -9 5
-9 -8 0 -24 4 -35 9 -13 5 -14 9 -5 9 8 0 24 -4 35 -9z m3475 -8 c0 -14 -18
-21 -97 -35 -116 -21 -113 -21 -113 -4 0 9 32 21 93 34 117 26 117 26 117 5z
m-1557 -8 c-2 -7 0 -15 6 -19 6 -3 11 -24 11 -45 0 -94 -121 -93 -136 1 -9 53
21 81 80 77 28 -2 42 -7 39 -14z m-1906 -20 c-3 -3 -12 -4 -19 -1 -8 3 -5 6 6
6 11 1 17 -2 13 -5z m176 -10 c20 -3 37 -10 37 -14 0 -9 -118 14 -128 25 -4 4
7 5 23 2 17 -4 47 -9 68 -13z m1587 2 c0 -7 -13 -16 -30 -19 -40 -9 -31 -35
10 -29 22 3 30 0 30 -11 0 -9 -10 -17 -22 -19 -18 -2 -22 -9 -20 -30 2 -22 -1
-28 -17 -28 -15 0 -23 10 -30 38 -25 93 -25 91 0 101 37 15 79 13 79 -3z
m1396 3 c4 -7 8 -26 10 -43 2 -17 9 -53 15 -80 17 -73 1 -290 -32 -441 -16
-68 -60 -208 -69 -219 -5 -4 -19 -1 -31 8 -13 9 -31 16 -41 16 -10 0 -18 4
-18 8 0 16 32 117 39 125 4 4 25 0 46 -9 39 -16 54 -10 55 22 0 11 -38 26 -70
28 -11 1 -14 11 -12 41 2 26 -1 35 -6 27 -5 -8 -20 -12 -33 -11 -13 2 -29 0
-34 -3 -7 -4 -9 6 -7 28 5 38 24 44 58 19 27 -20 32 -19 36 13 3 28 7 29 66
17 19 -5 32 -4 32 3 0 5 -20 13 -45 16 -43 7 -45 9 -45 40 0 31 -2 33 -27 28
-20 -4 -23 -7 -10 -10 13 -3 16 -10 11 -35 -3 -18 -9 -34 -15 -35 -5 -2 -7 -7
-4 -11 2 -5 -7 -6 -21 -3 -22 4 -24 8 -17 41 4 20 7 52 7 71 1 33 3 35 31 32
16 -2 35 -8 42 -14 10 -8 13 -3 13 20 0 38 7 43 52 33 l36 -8 4 71 c3 39 4 72
3 74 -1 1 -23 3 -48 4 l-45 0 -4 67 c-3 36 -3 69 -1 74 7 11 71 8 79 -4z
m-3156 -25 c0 -2 -7 -4 -15 -4 -8 0 -15 4 -15 10 0 5 7 7 15 4 8 -4 15 -8 15
-10z m696 -10 c4 -17 2 -29 -7 -35 -23 -15 -44 -5 -47 23 -3 25 4 31 40 37 4
0 11 -11 14 -25z m2767 6 c-12 -11 -193 -44 -200 -36 -10 9 -4 11 97 33 90 19
122 20 103 3z m-2860 -10 c-28 -12 -30 -24 -3 -15 14 4 22 1 26 -10 8 -19 6
-22 -27 -30 -23 -6 -27 -3 -33 21 -8 30 5 44 39 43 18 0 18 -1 -2 -9z m-618
-18 c-3 -3 -11 0 -18 7 -9 10 -8 11 6 5 10 -3 15 -9 12 -12z m3073 6 c16 -16
-3 -38 -33 -38 -23 0 -40 24 -29 41 8 13 48 11 62 -3z m-925 -15 c-7 -2 -19
-2 -25 0 -7 3 -2 5 12 5 14 0 19 -2 13 -5z m-2148 -13 c3 -5 2 -10 -4 -10 -5
0 -13 5 -16 10 -3 6 -2 10 4 10 5 0 13 -4 16 -10z m1495 -5 c7 -8 8 -15 2 -15
-5 0 -15 7 -22 15 -7 8 -8 15 -2 15 5 0 15 -7 22 -15z m-1512 -22 c-10 -2 -26
-2 -35 0 -10 3 -2 5 17 5 19 0 27 -2 18 -5z m726 -60 c8 -38 18 -88 22 -111 7
-42 6 -44 -17 -40 -21 3 -25 12 -42 96 -19 97 -18 122 7 122 10 0 19 -22 30
-67z m1391 51 c31 -20 32 -38 2 -30 -12 3 -35 -1 -51 -9 -34 -18 -36 -18 -36
-5 0 19 32 60 47 60 7 0 25 -7 38 -16z m1175 6 c0 -5 -2 -10 -4 -10 -3 0 -8 5
-11 10 -3 6 -1 10 4 10 6 0 11 -4 11 -10z m-2775 -20 c10 -11 15 -23 12 -27
-8 -7 -47 25 -47 39 0 14 16 9 35 -12z m-327 0 c23 0 42 -3 42 -7 0 -5 -29 -6
-65 -5 -36 2 -65 8 -65 14 0 6 10 8 23 4 12 -3 41 -6 65 -6z m-181 -6 c-3 -3
-12 -4 -19 -1 -8 3 -5 6 6 6 11 1 17 -2 13 -5z m1003 3 c0 -2 -10 -12 -22 -23
l-23 -19 19 23 c18 21 26 27 26 19z m450 -22 c13 -14 21 -25 18 -25 -2 0 -15
11 -28 25 -13 14 -21 25 -18 25 2 0 15 -11 28 -25z m510 16 c0 -5 3 -16 6 -25
4 -11 -5 -18 -35 -26 -46 -12 -56 -9 -64 20 -4 16 1 22 26 29 43 12 67 13 67
2z m-1495 -11 c3 -5 1 -10 -4 -10 -6 0 -11 5 -11 10 0 6 2 10 4 10 3 0 8 -4
11 -10z m985 -46 c0 -4 -11 3 -25 16 -14 13 -25 28 -25 34 0 6 11 -1 25 -16
14 -15 25 -30 25 -34z m1910 40 c0 -8 -4 -12 -10 -9 -5 3 -10 10 -10 16 0 5 5
9 10 9 6 0 10 -7 10 -16z m-1993 0 c-3 -3 -12 -4 -19 -1 -8 3 -5 6 6 6 11 1
17 -2 13 -5z m-1370 -10 c-3 -3 -12 -4 -19 -1 -8 3 -5 6 6 6 11 1 17 -2 13 -5z
m1861 -21 c4 -28 -8 -29 -31 -3 -23 27 -22 32 6 28 14 -2 23 -11 25 -25z
m-1413 7 c3 -5 1 -10 -4 -10 -6 0 -11 5 -11 10 0 6 2 10 4 10 3 0 8 -4 11 -10z
m2910 -20 c25 0 50 -6 59 -15 22 -22 31 -119 18 -216 -11 -88 -31 -135 -107
-239 -18 -25 -38 -56 -45 -70 -13 -25 -13 -25 15 3 44 43 85 34 85 -19 0 -19
5 -34 10 -34 6 0 9 6 8 13 -3 14 24 11 62 -6 29 -14 38 -54 19 -88 -10 -19
-13 -20 -20 -7 -5 9 -31 21 -59 28 -29 7 -50 18 -50 26 0 7 -15 16 -35 20 -19
3 -39 13 -44 22 -14 25 -59 -75 -71 -155 -5 -37 -20 -130 -34 -205 -26 -147
-38 -173 -108 -239 -21 -19 -38 -39 -38 -45 0 -13 -39 -36 -50 -29 -5 3 -11
-4 -15 -15 -6 -19 -30 -25 -78 -20 -10 1 -27 -6 -38 -16 -10 -9 -21 -15 -23
-13 -3 3 88 136 137 200 18 23 80 126 113 185 46 85 143 317 144 346 0 4 -7 5
-15 2 -19 -8 -20 16 0 42 11 14 15 16 15 4 1 -13 2 -13 9 0 26 45 74 360 71
465 -1 28 -1 64 -1 80 1 25 3 27 12 13 7 -13 23 -18 54 -18z m-3358 4 c-3 -3
-12 -4 -19 -1 -8 3 -5 6 6 6 11 1 17 -2 13 -5z m0 -30 c-3 -3 -12 -4 -19 -1
-8 3 -5 6 6 6 11 1 17 -2 13 -5z m418 -24 c3 -5 2 -10 -4 -10 -5 0 -13 5 -16
10 -3 6 -2 10 4 10 5 0 13 -4 16 -10z m-427 -7 c-10 -2 -26 -2 -35 0 -10 3 -2
5 17 5 19 0 27 -2 18 -5z m232 -2 c0 -7 -26 -11 -65 -11 -36 0 -65 3 -65 8 0
4 29 9 65 10 41 2 65 -1 65 -7z m870 -10 c0 -5 -8 -12 -17 -14 -13 -3 -12 -5
5 -6 16 -1 22 -6 20 -17 -3 -18 -48 -40 -48 -24 0 6 6 10 14 10 8 0 17 4 21 9
3 6 -7 9 -21 8 -34 -3 -43 20 -12 32 30 13 38 13 38 2z m-674 -11 c15 -6 24
-13 22 -16 -8 -8 -58 7 -58 17 0 11 3 11 36 -1z m581 -30 c3 -11 9 -20 14 -20
18 0 9 -18 -11 -23 -17 -4 -20 -2 -15 13 3 10 1 21 -5 25 -13 8 -13 25 1 25 6
0 13 -9 16 -20z m-990 -6 c-3 -3 -12 -4 -19 -1 -8 3 -5 6 6 6 11 1 17 -2 13
-5z m383 -4 c0 -5 -2 -10 -4 -10 -3 0 -8 5 -11 10 -3 6 -1 10 4 10 6 0 11 -4
11 -10z m2314 -11 c-3 -5 -10 -7 -15 -4 -5 4 -9 1 -9 -6 0 -7 -3 -10 -6 -6
-12 12 5 37 21 31 8 -3 12 -10 9 -15z m-2697 -15 c-3 -3 -12 -4 -19 -1 -8 3
-5 6 6 6 11 1 17 -2 13 -5z m223 -34 c0 -5 -8 -10 -19 -10 -10 0 -40 -3 -67
-6 -62 -9 -52 5 13 16 69 11 73 11 73 0z m2570 0 c0 -5 -12 -10 -26 -10 -14 0
-23 4 -19 10 3 6 15 10 26 10 10 0 19 -4 19 -10z m-2410 -10 c0 -5 -4 -10 -10
-10 -5 0 -10 5 -10 10 0 6 5 10 10 10 6 0 10 -4 10 -10z m-407 -17 c-7 -2 -19
-2 -25 0 -7 3 -2 5 12 5 14 0 19 -2 13 -5z m537 -2 c0 -5 -8 -12 -17 -14 -14
-4 -12 -5 5 -6 15 -1 22 -7 22 -21 0 -11 -6 -20 -14 -20 -8 0 -21 -3 -30 -6
-9 -3 -16 -1 -16 5 0 6 6 11 14 11 8 0 17 4 20 9 3 4 -6 6 -19 3 -20 -3 -25 0
-25 16 0 19 14 28 48 31 6 0 12 -3 12 -8z m2137 -8 c22 -9 14 -26 -9 -20 -13
3 -44 9 -70 12 -70 10 -61 29 9 20 31 -4 62 -9 70 -12z m143 7 c0 -5 -11 -10
-25 -10 -14 0 -25 5 -25 10 0 6 11 10 25 10 14 0 25 -4 25 -10z m-508 -16 c84
-31 208 -89 208 -97 0 -12 -70 -191 -78 -199 -12 -12 -237 57 -266 83 -7 6 8
52 65 207 10 26 16 27 71 6z m-1852 -39 c0 -18 -5 -20 -35 -17 -30 4 -35 8
-35 31 1 26 1 26 13 4 12 -21 40 -19 36 3 -1 5 -1 14 0 19 2 17 21 -19 21 -40z
m-117 -15 l2 -33 -93 -25 c-55 -15 -97 -21 -102 -16 -5 5 -10 22 -12 39 -3 29
-2 29 92 56 52 14 99 23 103 19 5 -4 10 -22 10 -40z m772 40 c3 -5 1 -10 -4
-10 -6 0 -11 5 -11 10 0 6 2 10 4 10 3 0 8 -4 11 -10z m1735 0 c0 -5 -18 -10
-40 -10 -22 0 -40 5 -40 10 0 6 18 10 40 10 22 0 40 -4 40 -10z m260 6 c0 -3
-4 -8 -10 -11 -5 -3 -10 -1 -10 4 0 6 5 11 10 11 6 0 10 -2 10 -4z m-3063 -22
c-3 -3 -12 -4 -19 -1 -8 3 -5 6 6 6 11 1 17 -2 13 -5z m-319 -26 c0 -13 1 -29
3 -37 2 -8 -9 -21 -25 -29 -27 -13 -31 -13 -43 4 -16 23 -17 71 0 77 6 3 24 6
38 6 21 1 27 -4 27 -21z m92 6 c0 -9 -42 -24 -52 -18 -15 10 19 34 38 27 8 -3
14 -7 14 -9z m1286 1 c18 -14 17 -15 -11 -9 -37 8 -57 24 -29 24 11 0 29 -7
40 -15z m1704 5 c0 -13 -11 -13 -30 0 -12 8 -11 10 8 10 12 0 22 -4 22 -10z
m-1058 -33 c154 -75 251 -263 218 -423 -46 -220 -257 -358 -473 -310 -133 30
-223 99 -280 215 -30 61 -32 73 -32 166 0 87 3 107 27 157 47 100 137 180 241
214 27 9 78 13 142 11 86 -2 108 -6 157 -30z m924 -51 c-4 -17 -10 -34 -15
-39 -4 -4 -36 0 -70 10 -64 19 -70 28 -52 77 l10 25 66 -22 c65 -21 66 -22 61
-51z m117 57 c-7 -2 -19 -2 -25 0 -7 3 -2 5 12 5 14 0 19 -2 13 -5z m-1698
-13 c3 -5 1 -10 -4 -10 -6 0 -11 5 -11 10 0 6 2 10 4 10 3 0 8 -4 11 -10z
m-1038 -6 c-3 -3 -12 -4 -19 -1 -8 3 -5 6 6 6 11 1 17 -2 13 -5z m2743 -10 c0
-2 -9 -4 -20 -4 -11 0 -20 4 -20 9 0 5 9 7 20 4 11 -3 20 -7 20 -9z m-2750
-24 c-36 -11 -50 -11 -50 0 0 6 17 10 38 9 33 -1 34 -2 12 -9z m2730 0 c12 -8
11 -10 -7 -10 -13 0 -23 5 -23 10 0 13 11 13 30 0z m221 -37 c-12 -20 -14 -14
-5 12 4 9 9 14 11 11 3 -2 0 -13 -6 -23z m-1941 7 c0 -5 -2 -10 -4 -10 -3 0
-8 5 -11 10 -3 6 -1 10 4 10 6 0 11 -4 11 -10z m1729 4 c17 -4 31 -10 31 -15
0 -10 -61 0 -74 12 -12 11 -1 11 43 3z m-2274 -44 c-10 -11 -20 -18 -23 -15
-3 3 3 14 13 25 10 11 20 18 23 15 3 -3 -3 -14 -13 -25z m490 0 c27 -30 12
-34 -15 -5 -13 14 -19 25 -13 25 5 0 18 -9 28 -20z m35 10 c0 -5 -2 -10 -4
-10 -3 0 -8 5 -11 10 -3 6 -1 10 4 10 6 0 11 -4 11 -10z m1730 0 c0 -5 -7 -7
-15 -4 -8 4 -15 8 -15 10 0 2 7 4 15 4 8 0 15 -4 15 -10z m-2465 -9 c-14 -12
-107 -42 -113 -36 -3 2 8 10 24 16 16 6 38 15 49 19 27 12 52 12 40 1z m2272
-43 c24 -11 43 -22 40 -24 -7 -7 -116 36 -123 48 -8 12 18 5 83 -24z m180 26
c-3 -3 -12 -4 -19 -1 -8 3 -5 6 6 6 11 1 17 -2 13 -5z m-2217 -8 c0 -3 -4 -8
-10 -11 -5 -3 -10 -1 -10 4 0 6 5 11 10 11 6 0 10 -2 10 -4z m2475 -8 c26 -12
30 -24 16 -46 -7 -12 -14 -11 -40 2 -34 18 -34 17 -25 40 7 19 15 20 49 4z
m-270 -16 c-3 -3 -11 0 -18 7 -9 10 -8 11 6 5 10 -3 15 -9 12 -12z m-2175 4
c0 -3 -4 -8 -10 -11 -5 -3 -10 -1 -10 4 0 6 5 11 10 11 6 0 10 -2 10 -4z m342
-16 c0 -11 1 -25 2 -32 1 -12 -51 -31 -58 -20 -2 4 -6 19 -10 34 -5 20 -2 28
11 31 39 10 53 7 55 -13z m-238 -17 c-8 -32 -12 -39 -19 -31 -9 8 6 58 16 58
5 0 6 -12 3 -27z m281 17 c3 -5 1 -10 -4 -10 -6 0 -11 5 -11 10 0 6 2 10 4 10
3 0 8 -4 11 -10z m-355 -4 c0 -3 -4 -8 -10 -11 -5 -3 -10 -1 -10 4 0 6 5 11
10 11 6 0 10 -2 10 -4z m234 -21 c9 -34 1 -45 -32 -45 l-27 1 25 14 25 15 -26
-6 c-20 -4 -26 -1 -26 13 0 39 52 46 61 8z m1906 15 c8 -5 11 -10 5 -10 -5 0
-17 5 -25 10 -8 5 -10 10 -5 10 6 0 17 -5 25 -10z m10 -30 c20 -6 21 -8 5 -8
-11 0 -29 3 -40 8 -25 11 1 11 35 0z m-2390 -5 c0 -7 -98 -55 -112 -55 -7 1
12 14 42 30 55 29 70 34 70 25z m2355 -23 c-3 -3 -11 0 -18 7 -9 10 -8 11 6 5
10 -3 15 -9 12 -12z m-150 -60 c-6 -7 -115 51 -115 61 0 5 27 -6 60 -24 33
-18 58 -34 55 -37z m140 38 c3 -6 -1 -7 -9 -4 -18 7 -21 14 -7 14 6 0 13 -4
16 -10z m-20 -58 c-3 -3 -11 0 -18 7 -9 10 -8 11 6 5 10 -3 15 -9 12 -12z
m-2269 -10 c-9 -15 -97 -65 -103 -59 -5 6 100 76 106 71 1 -1 0 -7 -3 -12z
m2664 -40 c0 -9 -7 -26 -15 -36 -13 -17 -18 -18 -40 -8 -31 14 -35 15 -35 3 0
-5 13 -14 30 -19 21 -8 28 -16 24 -26 -8 -20 -28 -20 -44 -1 -7 8 -21 15 -31
15 -24 0 -24 6 6 74 l25 56 40 -20 c24 -12 40 -27 40 -38z m-133 33 c24 -17
21 -45 -6 -45 -25 1 -54 27 -48 45 8 19 27 19 54 0z m-2960 -38 c-3 -41 -13
-57 -38 -57 -26 0 -24 27 2 35 16 5 19 13 15 29 -3 13 -3 26 1 29 12 13 22 -4
20 -36z m2463 1 c53 -35 70 -61 20 -31 -39 22 -87 62 -77 63 4 0 30 -15 57
-32z m250 22 c8 -5 11 -10 5 -10 -5 0 -17 5 -25 10 -8 5 -10 10 -5 10 6 0 17
-5 25 -10z m-45 -18 c-3 -3 -11 0 -18 7 -9 10 -8 11 6 5 10 -3 15 -9 12 -12z
m-30 -50 c-3 -3 -11 0 -18 7 -9 10 -8 11 6 5 10 -3 15 -9 12 -12z m-2741 -18
c13 -33 7 -44 -18 -34 -13 5 -27 6 -31 2 -3 -3 -10 0 -15 8 -6 9 -3 18 8 27
23 17 49 16 56 -3z m566 -24 c-44 -39 -60 -48 -60 -32 1 9 82 71 95 71 6 0
-10 -18 -35 -39z m192 -35 c-4 -6 -38 -40 -75 -75 l-68 -63 -24 23 c-14 13
-25 29 -25 36 0 7 33 41 73 77 l72 66 27 -26 c16 -15 24 -31 20 -38z m1973 47
c-3 -3 -11 0 -18 7 -9 10 -8 11 6 5 10 -3 15 -9 12 -12z m-235 -32 c25 -22 41
-40 35 -40 -5 0 -30 18 -55 40 -25 21 -40 39 -35 39 6 0 30 -18 55 -39z m230
4 c0 -2 -9 0 -20 6 -11 6 -20 13 -20 16 0 2 9 0 20 -6 11 -6 20 -13 20 -16z
m-315 -54 l69 -69 -24 -26 c-13 -14 -28 -25 -35 -25 -6 0 -42 31 -80 70 l-69
69 24 26 c13 14 28 25 35 25 6 0 42 -31 80 -70z m-2425 36 c0 -3 -4 -8 -10
-11 -5 -3 -10 -1 -10 4 0 6 5 11 10 11 6 0 10 -2 10 -4z m2965 -40 c11 -8 16
-19 12 -30 -8 -21 -19 -20 -45 5 -35 32 -7 55 33 25z m115 -13 l31 -28 -37
-52 c-20 -29 -40 -53 -43 -53 -3 1 -20 13 -37 28 l-32 27 34 53 c19 28 38 52
44 52 5 0 23 -12 40 -27z m-2280 -50 c-1 -13 -79 -98 -84 -92 -3 3 11 26 32
51 35 44 53 58 52 41z m1527 -66 c19 -26 31 -47 26 -46 -4 0 -25 23 -47 51
-21 28 -33 49 -26 46 7 -2 28 -25 47 -51z m-1777 5 c0 -4 -10 -13 -22 -21 -23
-14 -23 -14 -4 8 20 22 26 25 26 13z m314 -67 c-21 -30 -39 -53 -42 -51 -6 7
58 106 69 106 5 0 -7 -25 -27 -55z m1687 28 l24 -26 -27 19 c-15 10 -28 22
-28 27 0 12 5 8 31 -20z m-332 -34 c39 -63 34 -77 -6 -17 -42 61 -45 68 -35
68 5 0 23 -23 41 -51z m586 -9 c21 -23 12 -39 -13 -24 -19 12 -29 44 -14 44 5
0 17 -9 27 -20z m-1834 -62 c-17 -29 -31 -47 -31 -40 0 21 53 118 57 105 3 -7
-9 -37 -26 -65z m302 50 c16 -12 16 -19 -9 -103 -15 -49 -30 -94 -34 -98 -4
-5 -24 -1 -45 7 -26 11 -35 20 -31 31 3 9 15 48 27 88 12 40 24 75 26 80 7 11
47 8 66 -5z m832 -38 c14 -27 25 -55 25 -62 -1 -13 -59 90 -60 105 -1 18 12 3
35 -43z m-226 3 c19 -72 35 -162 30 -167 -3 -3 -20 -7 -39 -8 l-35 -3 -22 80
c-33 123 -31 130 34 134 18 1 24 -7 32 -36z m1041 13 l23 -25 -32 -31 c-22
-22 -31 -27 -31 -16 0 9 -8 16 -20 16 -31 0 -34 24 -8 53 29 33 39 33 68 3z
m-1802 -14 c-1 -4 -12 -31 -22 -60 -11 -29 -24 -52 -29 -52 -5 0 -7 4 -5 8 2
4 12 31 22 60 11 29 24 52 29 52 5 0 7 -4 5 -8z m871 -58 c23 -62 26 -73 12
-58 -15 15 -52 114 -42 114 4 0 18 -25 30 -56z m-1379 6 c0 -5 -5 -10 -11 -10
-5 0 -7 5 -4 10 3 6 8 10 11 10 2 0 4 -4 4 -10z m743 -47 c-4 -21 -10 -49 -14
-63 l-7 -25 -1 25 c-1 39 11 100 20 100 4 0 5 -17 2 -37z m390 -55 c3 -21 2
-38 -2 -38 -8 0 -22 76 -20 114 1 25 14 -19 22 -76z m-263 17 c0 -37 -4 -65
-10 -65 -11 0 -13 51 -4 99 10 48 14 37 14 -34z m129 -2 c-1 -53 -3 -61 -9
-38 -11 45 -11 105 0 105 6 0 10 -28 9 -67z m1261 57 c0 -5 -4 -10 -10 -10 -5
0 -10 5 -10 10 0 6 5 10 10 10 6 0 10 -4 10 -10z m-2135 -59 c-3 -6 -11 -11
-17 -11 -6 0 -6 6 2 15 14 17 26 13 15 -4z m-553 -96 c49 -52 137 -132 196
-177 168 -131 163 -125 158 -205 -2 -37 -5 -72 -5 -76 -1 -5 -5 -5 -11 -2 -6
4 -6 -3 0 -21 10 -25 9 -26 -6 -13 -27 22 -434 570 -434 584 0 14 20 -3 102
-90z m684 8 c-10 -10 -19 5 -10 18 6 11 8 11 12 0 2 -7 1 -15 -2 -18z m140
-59 c-4 -9 -9 -15 -11 -12 -3 3 -3 13 1 22 4 9 9 15 11 12 3 -3 3 -13 -1 -22z
m160 -20 c24 -6 31 -19 17 -27 -12 -7 -73 22 -73 34 0 6 7 8 16 5 9 -3 27 -9
40 -12z m784 -23 c0 -5 -16 -11 -35 -13 -34 -4 -48 5 -22 15 21 9 57 7 57 -2z
m-644 -48 c-11 -11 -19 6 -11 24 8 17 8 17 12 0 3 -10 2 -21 -1 -24z m154 -4
c0 -11 -4 -18 -10 -14 -5 3 -7 12 -3 20 7 21 13 19 13 -6z m310 11 c0 -5 -4
-10 -10 -10 -5 0 -10 5 -10 10 0 6 5 10 10 10 6 0 10 -4 10 -10z m-163 -22
c-3 -8 -6 -5 -6 6 -1 11 2 17 5 13 3 -3 4 -12 1 -19z m-774 -151 c-4 -6 0 -8
10 -4 10 4 30 1 45 -5 15 -6 83 -27 151 -48 87 -26 117 -39 102 -43 -35 -9
-221 44 -221 63 0 9 -43 22 -81 25 -28 3 -73 24 -51 25 7 0 10 5 7 10 -4 6 4
5 19 -1 14 -7 23 -17 19 -22z m421 -117 c7 -7 3 -10 -12 -10 -12 0 -22 5 -22
11 0 5 -3 8 -7 6 -5 -3 -17 0 -28 4 -14 7 -9 8 19 5 22 -3 44 -10 50 -16z
m429 -17 l39 -6 -39 -13 c-47 -17 -72 -17 -131 -2 -46 12 -46 12 -17 19 41 9
102 10 148 2z m1557 -643 c0 -5 -4 -10 -10 -10 -5 0 -10 5 -10 10 0 6 5 10 10
10 6 0 10 -4 10 -10z m-4010 -900 c0 -5 -5 -10 -11 -10 -5 0 -7 5 -4 10 3 6 8
10 11 10 2 0 4 -4 4 -10z m620 -90 c0 -5 -4 -10 -10 -10 -5 0 -10 5 -10 10 0
6 5 10 10 10 6 0 10 -4 10 -10z"/>
<path d="M2800 5146 c0 -6 9 -12 20 -12 11 0 20 3 20 7 0 4 -9 9 -20 12 -12 3
-20 0 -20 -7z"/>
<path d="M2312 5140 c0 -14 2 -19 5 -12 2 6 2 18 0 25 -3 6 -5 1 -5 -13z"/>
<path d="M2268 5143 c7 -3 16 -2 19 1 4 3 -2 6 -13 5 -11 0 -14 -3 -6 -6z"/>
<path d="M3500 4945 c7 -9 15 -13 17 -11 7 7 -7 26 -19 26 -6 0 -6 -6 2 -15z"/>
<path d="M3530 4925 c-7 -9 -10 -18 -7 -21 3 -3 10 4 17 15 13 25 8 27 -10 6z"/>
<path d="M3565 4899 c-11 -17 1 -21 15 -4 8 9 8 15 2 15 -6 0 -14 -5 -17 -11z"/>
<path d="M3157 4839 c7 -7 15 -10 18 -7 3 3 -2 9 -12 12 -14 6 -15 5 -6 -5z"/>
<path d="M2391 4764 c0 -11 3 -14 6 -6 3 7 2 16 -1 19 -3 4 -6 -2 -5 -13z"/>
<path d="M3280 4760 c0 -5 5 -10 11 -10 5 0 7 5 4 10 -3 6 -8 10 -11 10 -2 0
-4 -4 -4 -10z"/>
<path d="M2468 4625 c2 -19 6 -35 8 -35 2 0 4 16 4 35 0 19 -4 35 -8 35 -4 0
-6 -16 -4 -35z"/>
<path d="M2625 4290 c3 -5 8 -10 11 -10 2 0 4 5 4 10 0 6 -5 10 -11 10 -5 0
-7 -4 -4 -10z"/>
<path d="M3887 4263 c-6 -10 43 -87 50 -80 3 3 -7 21 -21 40 -14 18 -23 37
-19 40 3 4 4 7 0 7 -3 0 -8 -3 -10 -7z"/>
<path d="M2750 4190 c-9 -6 -10 -10 -3 -10 6 0 15 5 18 10 8 12 4 12 -15 0z"/>
<path d="M3961 4130 c12 -22 25 -38 27 -35 5 4 -37 75 -44 75 -3 0 5 -18 17
-40z"/>
<path d="M3139 3853 l-24 -28 28 24 c25 23 32 31 24 31 -2 0 -14 -12 -28 -27z"/>
<path d="M3268 3713 c6 -2 18 -2 25 0 6 3 1 5 -13 5 -14 0 -19 -2 -12 -5z"/>
<path d="M3310 3693 c0 -6 9 -21 21 -34 l20 -24 -17 30 c-24 39 -24 40 -24 28z"/>
<path d="M3260 3660 c20 -13 43 -13 35 0 -3 6 -16 10 -28 10 -18 0 -19 -2 -7
-10z"/>
<path d="M3360 3629 c0 -5 11 -9 25 -9 14 0 25 2 25 4 0 2 -11 6 -25 8 -14 3
-25 1 -25 -3z"/>
<path d="M3468 3573 c7 -3 16 -2 19 1 4 3 -2 6 -13 5 -11 0 -14 -3 -6 -6z"/>
<path d="M3516 3558 c3 -5 10 -6 15 -3 13 9 11 12 -6 12 -8 0 -12 -4 -9 -9z"/>
<path d="M3675 3510 c-3 -5 1 -10 9 -10 9 0 16 5 16 10 0 6 -4 10 -9 10 -6 0
-13 -4 -16 -10z"/>
<path d="M4070 3309 c0 -5 5 -7 10 -4 6 3 10 8 10 11 0 2 -4 4 -10 4 -5 0 -10
-5 -10 -11z"/>
<path d="M3635 4870 c-3 -5 -1 -10 4 -10 6 0 11 5 11 10 0 6 -2 10 -4 10 -3 0
-8 -4 -11 -10z"/>
<path d="M3670 4842 c0 -5 7 -13 16 -16 10 -4 14 -1 12 6 -5 15 -28 23 -28 10z"/>
<path d="M3640 4832 c0 -12 19 -26 26 -19 2 2 -2 10 -11 17 -9 8 -15 8 -15 2z"/>
<path d="M3700 4805 c-7 -9 -11 -18 -8 -20 3 -3 11 1 18 10 7 9 11 18 8 20 -3
3 -11 -1 -18 -10z"/>
<path d="M1515 4799 c-11 -17 1 -21 15 -4 8 9 8 15 2 15 -6 0 -14 -5 -17 -11z"/>
<path d="M1555 4790 c-3 -5 -2 -10 4 -10 5 0 13 5 16 10 3 6 2 10 -4 10 -5 0
-13 -4 -16 -10z"/>
<path d="M3789 4733 c-13 -16 -12 -17 4 -4 9 7 17 15 17 17 0 8 -8 3 -21 -13z"/>
<path d="M3805 4719 c-11 -17 1 -21 15 -4 8 9 8 15 2 15 -6 0 -14 -5 -17 -11z"/>
<path d="M3840 4685 c-8 -9 -8 -15 -2 -15 12 0 26 19 19 26 -2 2 -10 -2 -17
-11z"/>
<path d="M3942 4558 c2 -6 10 -14 16 -16 7 -2 10 2 6 12 -7 18 -28 22 -22 4z"/>
<path d="M3982 4558 c5 -15 28 -23 28 -10 0 5 -7 13 -16 16 -10 4 -14 1 -12
-6z"/>
<path d="M3995 4519 c-11 -17 1 -21 15 -4 8 9 8 15 2 15 -6 0 -14 -5 -17 -11z"/>
<path d="M2422 4381 c4 -13 18 -16 19 -4 0 4 -5 9 -11 12 -7 2 -11 -2 -8 -8z"/>
<path d="M2342 4359 c2 -6 8 -10 13 -10 5 0 11 4 13 10 2 6 -4 11 -13 11 -9 0
-15 -5 -13 -11z"/>
<path d="M4150 4310 c-9 -6 -10 -10 -3 -10 6 0 15 5 18 10 8 12 4 12 -15 0z"/>
<path d="M4175 4270 c-3 -5 -2 -10 4 -10 5 0 13 5 16 10 3 6 2 10 -4 10 -5 0
-13 -4 -16 -10z"/>
<path d="M4528 4073 c7 -3 16 -2 19 1 4 3 -2 6 -13 5 -11 0 -14 -3 -6 -6z"/>
<path d="M4435 4060 l-20 -9 20 1 c11 0 31 4 45 8 l25 8 -25 0 c-14 0 -34 -3
-45 -8z"/>
<path d="M2132 3968 c3 -7 13 -15 22 -16 12 -3 17 1 14 10 -3 7 -13 15 -22 16
-12 3 -17 -1 -14 -10z"/>
<path d="M4300 3948 c0 -7 5 -20 10 -28 8 -12 10 -11 10 7 0 12 -4 25 -10 28
-5 3 -10 0 -10 -7z"/>
<path d="M4346 3905 c4 -8 8 -15 10 -15 2 0 4 7 4 15 0 8 -4 15 -10 15 -5 0
-7 -7 -4 -15z"/>
<path d="M2590 3725 c0 -8 7 -15 15 -15 8 0 15 7 15 15 0 8 -7 15 -15 15 -8 0
-15 -7 -15 -15z"/>
<path d="M2510 3705 c0 -8 7 -15 15 -15 8 0 15 7 15 15 0 8 -7 15 -15 15 -8 0
-15 -7 -15 -15z"/>
<path d="M3111 3631 c-17 -11 -5 -70 16 -78 25 -10 37 13 27 48 -10 35 -22 43
-43 30z"/>
<path d="M1943 3603 c-21 -7 -15 -33 7 -33 11 0 20 6 20 14 0 18 -11 25 -27
19z"/>
<path d="M1868 3553 c7 -3 16 -2 19 1 4 3 -2 6 -13 5 -11 0 -14 -3 -6 -6z"/>
<path d="M3168 3472 c-10 -2 -18 -8 -18 -13 0 -11 11 -11 30 1 18 11 11 18
-12 12z"/>
<path d="M3505 3181 c-8 -15 -66 -174 -63 -176 16 -13 224 -83 229 -77 4 4 18
39 32 77 14 39 28 77 31 86 5 12 -7 19 -51 33 -32 10 -84 29 -115 41 -32 13
-60 20 -63 16z m135 -61 c30 -13 59 -27 64 -31 9 -8 -30 -135 -45 -144 -14 -9
-199 60 -199 74 0 7 39 112 46 122 8 13 80 2 134 -21z"/>
<path d="M3509 3114 c-12 -15 -11 -16 9 -10 30 10 57 -11 41 -30 -6 -8 -19
-14 -29 -14 -10 0 -28 -8 -40 -18 l-22 -18 41 -16 c22 -9 41 -12 41 -7 0 5
-11 11 -25 15 -34 8 -31 22 7 32 44 11 57 35 34 61 -23 25 -39 26 -57 5z"/>
<path d="M3640 3059 c-14 -12 -34 -28 -45 -36 -15 -12 -17 -16 -6 -20 7 -3 21
-13 31 -23 11 -11 23 -15 31 -9 7 4 11 11 7 14 -4 4 0 25 8 47 8 22 14 42 14
44 0 9 -17 2 -40 -17z m6 -35 c-3 -9 -6 -18 -6 -20 0 -2 -9 -4 -20 -4 -25 0
-25 9 -2 26 23 18 35 17 28 -2z"/>
<path d="M920 3100 c0 -5 4 -10 9 -10 6 0 13 5 16 10 3 6 -1 10 -9 10 -9 0
-16 -4 -16 -10z"/>
<path d="M2757 3143 c-22 -6 -20 -56 3 -60 27 -5 43 13 36 41 -3 14 -10 25
-14 25 -4 -1 -15 -3 -25 -6z m28 -22 c7 -12 -12 -24 -25 -16 -11 7 -4 25 10
25 5 0 11 -4 15 -9z"/>
<path d="M2681 3121 c-9 -6 -11 -18 -8 -34 6 -20 12 -23 32 -19 16 3 25 11 25
24 0 15 -5 18 -22 13 -22 -6 -22 -6 -4 9 14 12 16 16 5 16 -8 0 -20 -4 -28 -9z
m36 -37 c-3 -3 -12 -4 -19 -1 -8 3 -5 6 6 6 11 1 17 -2 13 -5z"/>
<path d="M2906 3108 c-8 -32 -7 -40 3 -34 11 7 21 56 11 56 -4 0 -10 -10 -14
-22z"/>
<path d="M2715 3057 c-112 -44 -175 -119 -196 -232 -18 -98 34 -232 108 -280
23 -15 20 -10 -14 27 -49 54 -77 104 -63 113 5 3 18 -12 29 -33 21 -42 87
-106 127 -124 14 -7 23 -17 20 -25 -3 -8 2 -13 14 -13 11 0 20 3 20 8 0 4 26
8 58 8 40 1 76 9 116 27 69 32 73 32 55 10 -26 -32 25 9 55 43 43 52 66 113
66 180 0 91 -24 150 -89 215 -38 38 -72 61 -105 72 -56 19 -157 21 -201 4z
m152 -22 c2 -6 -17 -9 -48 -6 -46 3 -50 1 -46 -15 3 -11 13 -48 22 -84 9 -36
18 -73 21 -82 4 -14 -1 -18 -19 -18 -22 0 -27 8 -46 78 -12 43 -21 83 -21 90
0 22 -17 21 -54 -4 -21 -14 -41 -23 -44 -19 -10 10 31 36 87 57 48 19 142 20
148 3z m106 -36 c47 -31 107 -110 106 -138 0 -13 -2 -13 -12 3 -44 68 -74 100
-117 127 -28 17 -50 33 -50 35 0 12 32 0 73 -27z m-378 -85 c-31 -45 -45 -95
-45 -157 0 -30 -4 -46 -10 -42 -28 18 -2 155 41 216 30 42 43 26 14 -17z m505
-149 c0 -53 -33 -145 -60 -170 -26 -23 -25 -21 10 49 23 46 30 72 30 118 0 37
4 57 10 53 6 -3 10 -26 10 -50z"/>
<path d="M2570 3025 c13 -14 26 -23 28 -20 7 7 -29 45 -41 45 -6 0 0 -11 13
-25z"/>
<path d="M3061 3010 c-13 -11 -19 -20 -14 -20 6 0 18 9 28 20 23 25 17 25 -14
0z"/>
<path d="M3110 2890 c0 -5 5 -10 11 -10 5 0 7 5 4 10 -3 6 -8 10 -11 10 -2 0
-4 -4 -4 -10z"/>
<path d="M2468 2878 c5 -5 16 -8 23 -6 8 3 3 7 -10 11 -17 4 -21 3 -13 -5z"/>
<path d="M3150 2842 c0 -5 7 -9 15 -9 8 0 15 4 15 9 0 4 -7 8 -15 8 -8 0 -15
-4 -15 -8z"/>
<path d="M3130 2823 c0 -15 18 -35 23 -27 3 5 -1 15 -9 22 -8 7 -14 9 -14 5z"/>
<path d="M2460 2720 c-13 -8 -12 -10 3 -10 9 0 17 5 17 10 0 12 -1 12 -20 0z"/>
<path d="M3120 2687 c0 -3 15 -10 32 -16 18 -6 28 -7 23 -2 -12 10 -55 25 -55
18z"/>
<path d="M2555 2540 c-10 -11 -13 -20 -8 -20 13 0 38 29 31 35 -3 3 -13 -4
-23 -15z"/>
<path d="M3040 2543 c0 -5 9 -18 20 -28 11 -10 20 -14 20 -8 0 5 -9 18 -20 28
-11 10 -20 14 -20 8z"/>
<path d="M2922 2477 c-17 -8 -21 -16 -16 -31 9 -29 10 -29 39 -22 21 5 25 11
19 29 -9 32 -16 36 -42 24z m28 -22 c0 -8 -7 -15 -15 -15 -8 0 -15 7 -15 15 0
8 7 15 15 15 8 0 15 -7 15 -15z"/>
<path d="M2716 2455 c-3 -9 -6 -22 -5 -28 0 -7 5 -1 10 12 5 13 8 26 5 28 -2
2 -6 -3 -10 -12z"/>
<path d="M2850 2459 l-25 -7 24 -1 c22 -1 23 -2 8 -13 -23 -18 -8 -38 20 -27
15 6 20 13 16 29 -7 26 -12 29 -43 19z"/>
<path d="M2104 2939 c-3 -6 -2 -15 2 -19 12 -12 38 5 30 19 -9 14 -23 14 -32
0z"/>
<path d="M4000 2341 c0 -5 5 -13 10 -16 6 -3 10 -2 10 4 0 5 -4 13 -10 16 -5
3 -10 2 -10 -4z"/>
<path d="M3960 2320 c0 -5 4 -10 9 -10 6 0 13 5 16 10 3 6 -1 10 -9 10 -9 0
-16 -4 -16 -10z"/>
</g>
</svg>
